<svg version="1.1" id="Layer_1" xmlns="http://www.w3.org/2000/svg" x="0" y="0" viewBox="0 0 512 512" style="enable-background:new 0 0 512 512" xml:space="preserve"><style>.st1{fill:#edf3fc}.st2{fill:#330d84}.st3{fill:#ffbe1b}.st6{fill:#fff}.st10{fill:#5d8ef9}.st11{fill:#8ac9f9}</style><path class="st1" d="M255.999 40.928c-118.778 0-215.071 96.294-215.071 215.074 0 118.776 96.292 215.068 215.071 215.068S471.07 374.778 471.07 256.002c0-118.78-96.293-215.074-215.071-215.074z"/><path class="st1" d="M255.999 1C115.391 1 1 115.392 1 256.002 1 396.609 115.391 511 255.999 511S511 396.609 511 256.002C511 115.392 396.607 1 255.999 1zm0 501.832c-136.103 0-246.83-110.728-246.83-246.83 0-136.104 110.727-246.833 246.83-246.833 136.102 0 246.832 110.729 246.832 246.833 0 136.102-110.73 246.83-246.832 246.83z"/><path class="st10" d="m266.903 412.863 2.875.72-2.875.72a47.022 47.022 0 0 0-34.186 34.192l-.724 2.871-.721-2.871a47.027 47.027 0 0 0-34.195-34.192l-2.864-.72 2.864-.72a47.035 47.035 0 0 0 34.195-34.186l.721-2.869.724 2.869a47.03 47.03 0 0 0 34.186 34.186z"/><path class="st2" d="m269.956 103.231 2.322.582-2.322.582a37.985 37.985 0 0 0-27.616 27.62l-.585 2.32-.583-2.32a37.986 37.986 0 0 0-27.622-27.62l-2.314-.582 2.314-.582a37.992 37.992 0 0 0 27.622-27.616l.583-2.318.585 2.318a37.991 37.991 0 0 0 27.616 27.616z"/><path class="st3" d="m112.332 206.604 1.668.418-1.668.418a27.285 27.285 0 0 0-19.837 19.84l-.42 1.666-.419-1.666a27.285 27.285 0 0 0-19.842-19.84l-1.662-.418 1.662-.418a27.292 27.292 0 0 0 19.842-19.837l.419-1.665.42 1.665a27.289 27.289 0 0 0 19.837 19.837z"/><path class="st2" d="m321.717 117.928 1.648.413-1.648.413a26.956 26.956 0 0 0-19.597 19.6l-.414 1.646-.413-1.646a26.956 26.956 0 0 0-19.602-19.6l-1.642-.413 1.642-.413a26.964 26.964 0 0 0 19.602-19.597l.413-1.645.415 1.645a26.957 26.957 0 0 0 19.596 19.597z"/><path class="st10" d="m167.842 392.661 1.484.372-1.484.372a24.261 24.261 0 0 0-17.64 17.643l-.373 1.482-.372-1.482a24.264 24.264 0 0 0-17.645-17.643l-1.478-.372 1.478-.372a24.27 24.27 0 0 0 17.645-17.64l.372-1.48.373 1.48a24.267 24.267 0 0 0 17.64 17.64z"/><path class="st2" d="M365.738 360.045H146.267c-13.893 0-25.155-11.261-25.155-25.152V177.104c0-13.887 11.263-25.148 25.155-25.148h219.472c13.891 0 25.15 11.262 25.15 25.148v157.789c0 13.891-11.26 25.152-25.151 25.152z"/><circle class="st6" cx="300.422" cy="173.584" r="7.5"/><circle class="st6" cx="330.866" cy="173.584" r="7.5"/><path class="st6" d="M368.809 173.584c0 4.143-3.356 7.5-7.501 7.5-4.142 0-7.499-3.357-7.499-7.5s3.358-7.5 7.499-7.5a7.5 7.5 0 0 1 7.501 7.5z"/><path d="M365.738 360.045H146.267c-13.893 0-25.155-11.261-25.155-25.152V196.602h269.777v138.291c0 13.891-11.26 25.152-25.151 25.152z" style="fill:#6857e5"/><path class="st6" d="M208.386 229.587h-59.995a5 5 0 1 1 0-10h59.995a5 5 0 1 1 0 10z"/><path class="st11" d="M235.947 213.587h127.662v22H235.947z"/><path class="st6" d="M208.386 265.587h-59.995a5 5 0 1 1 0-10h59.995a5 5 0 1 1 0 10z"/><path class="st11" d="M235.947 249.587h127.662v22H235.947z"/><path class="st6" d="M208.386 301.587h-59.995a5 5 0 1 1 0-10h59.995a5 5 0 1 1 0 10z"/><path class="st11" d="M235.947 285.587h127.662v22H235.947z"/><path class="st3" d="M269.922 321.587h61v21.081h-61z"/></svg>